# xmcd
#
# Track frame offsets:
#	150
#	14715
#	26139
#	41833
#	57579
#	72987
#	84457
#	99151
#	115563
#	127952
#	144534
#	157352
#	173755
#	190560
#
# Disc length: 2769 seconds
#
# Revision: 0
# Processed by: cddbd v1.5.2PL0 Copyright (c) Steve Scherf et al.
# Submitted via: dBpowerAMP V4.0
#
DISCID=c00acf0e
DTITLE=Leandro di Souza - ao vivo em Ipatinga MG
DYEAR=2010
DGENRE=Country
TTITLE0=despedida
TTITLE1=so saudade
TTITLE2=quebrou a cara
TTITLE3=tem alguem em seu lugar
TTITLE4=gosto de cafe amargo
TTITLE5=se o amor nao valeu
TTITLE6=paixao brasileira
TTITLE7=seresteiro triste
TTITLE8=pago pra ver
TTITLE9=enquanto a chuva cai
TTITLE10=moda da botina
TTITLE11=do jeito que a mocada gosta
TTITLE12=sintomas de paixao
TTITLE13=fogao de lenha
EXTD=
EXTT0=
EXTT1=
EXTT2=
EXTT3=
EXTT4=
EXTT5=
EXTT6=
EXTT7=
EXTT8=
EXTT9=
EXTT10=
EXTT11=
EXTT12=
EXTT13=
PLAYORDER=
